<svg width="35" height="41" viewBox="0 0 35 41" fill="none" xmlns="http://www.w3.org/2000/svg">
<g clip-path="url(#clip0_3001_7970)">
<path fill-rule="evenodd" clip-rule="evenodd" d="M19.253 26.0214C18.2503 24.9445 17.3913 23.721 16.6707 22.3457C18.8848 24.2616 21.9181 24.4302 23.0268 23.6184C23.1956 24.5234 21.9381 25.0472 19.253 25.1896C20.4749 25.7071 21.6989 25.5406 22.924 24.6889C22.7352 25.6568 22.1971 26.3597 21.3108 26.7934C21.6129 26.9023 22.0513 26.7274 22.6188 26.2633C22.6723 26.2864 22.7079 26.3566 22.7278 26.4686C22.3125 26.6342 21.9244 27.0385 21.5699 27.6785C20.7203 27.2983 19.9463 26.7441 19.253 26.0214ZM12.727 22.5143C13.4276 25.0797 14.2374 26.9861 15.1499 28.2326C13.6133 26.9337 13.2011 24.7822 12.3914 23.1805C12.2886 23.6278 12.1355 23.9861 11.9362 24.2511C11.8135 24.6659 11.8795 24.9938 12.1386 25.2326C12.6525 25.8496 12.9085 26.5189 12.9085 27.2511C12.6064 26.4885 12.2875 25.9711 11.953 25.6966C11.8397 26.1575 11.717 26.4393 11.5743 26.5388C12.1218 26.7944 12.5372 27.2448 12.8225 27.8974C13.3406 29.0612 13.7287 29.7012 13.9909 29.8196C14.8069 29.674 15.3554 30.1412 16.1578 30.2302C16.7515 30.1841 17.0441 30.3497 17.0378 30.7205C16.9885 31.0389 16.8322 31.2275 16.5732 31.284C17.0011 31.4631 17.0944 31.8046 16.9046 32.2226C16.9738 32.2959 17.1039 32.342 17.1637 32.474C17.2434 32.3378 17.3367 32.232 17.4427 32.1629C17.1742 31.7324 17.2769 31.4401 17.7479 31.284C17.406 31.1248 17.2528 30.9195 17.2969 30.6608C17.3504 30.313 17.6357 30.1569 18.1569 30.203C18.9373 30.0867 19.6337 29.6164 20.3711 29.8018C20.9154 29.1356 21.1976 28.6181 21.2175 28.2473C19.3054 27.2459 17.8454 25.6621 16.9455 23.9546C16.527 23.1659 15.7509 21.4846 14.6947 20.259C13.6427 19.0356 12.1019 18.2929 11.4516 19.2147C12.4774 19.5101 13.2378 20.3785 13.735 21.8272C12.835 20.1428 11.826 19.421 10.7048 19.663C11.8082 20.2706 12.4816 21.2186 12.727 22.5143ZM17.1647 34.173C16.9885 34.4779 16.0865 34.4716 14.4534 34.1469C13.0962 33.1821 12.1764 32.4667 11.6949 32.0058C9.9423 31.6978 8.2893 31.7701 6.74224 32.2184C7.57188 31.6454 8.71094 31.284 10.1573 31.1311C8.94589 30.3915 8.27252 29.6792 8.13617 28.99C6.37724 29.1387 5.27804 29.9045 4.84381 31.2872C4.27953 33.6503 6.84188 36.2523 11.1139 37.3564C9.37172 36.0439 8.43509 35.1619 8.30608 34.7083C9.37172 35.6196 10.4667 36.2932 11.589 36.7269C12.276 36.9521 13.4612 37.7482 15.1373 39.1099C15.4425 39.3488 15.7246 39.398 15.9806 39.2587C17.8926 38.2405 18.9509 36.5739 19.1607 34.26C17.9881 34.3983 17.3241 34.3721 17.1647 34.173ZM29.4625 31.2861C29.0273 29.9034 27.9291 29.1377 26.167 28.9889C26.0338 29.6782 25.3605 30.3915 24.149 31.13C25.5965 31.283 26.7345 31.6433 27.5641 32.2173C26.167 31.6203 24.5235 31.525 22.7677 31.8298C22.2894 32.2938 21.0612 33.2523 19.704 34.216C19.7837 36.3047 18.4129 38.2698 17.7825 38.9099C18.0384 39.046 18.652 39.5928 19.1701 39.1089C20.8462 37.7461 22.0283 36.951 22.7184 36.7258C23.8407 36.2911 24.9357 35.6186 26.0013 34.7073C25.8723 35.1619 24.9357 36.0428 23.1904 37.3554C27.4645 36.2513 30.0268 33.6493 29.4625 31.2861Z" fill="#FFA832"/>
<path fill-rule="evenodd" clip-rule="evenodd" d="M7.79592 26.5592C6.86034 24.4443 4.27805 23.2973 5.46221 19.3691C5.57549 19.9191 6.13977 20.6492 7.14877 21.5605C7.95534 22.2204 8.37069 23.2009 8.39376 24.5071C8.39376 24.5071 8.34027 24.636 8.23748 24.8947C7.88926 23.6911 7.32183 22.7264 6.531 21.9973C7.24107 23.1412 7.68893 24.4799 7.87563 26.0145C7.90919 25.9925 7.88192 26.1748 7.79592 26.5592ZM7.61971 28.5254C6.62015 27.458 5.50836 26.51 4.28435 25.6845C5.86707 26.3047 7.01976 26.9845 7.74242 27.7198C5.96671 24.3553 3.12851 24.7994 2.22964 23.9478C3.26801 27.4244 5.06365 28.9496 7.61971 28.5254ZM4.58327 30.5073C4.77206 30.1061 5.10141 29.7216 5.57549 29.3508C4.09136 29.3571 3.15263 29.4074 2.76456 29.4996C3.20298 29.2471 3.94976 29.0292 5.00491 28.8396C4.66928 28.694 4.44063 28.561 4.31162 28.4353C2.91769 28.4217 1.73877 29.002 0.780121 30.1721C2.20342 29.6651 3.4117 30.5471 4.58327 30.5073ZM4.21407 31.3861C1.74507 32.155 0.274573 33.6141 2.95964 35.2912C4.16163 36.0402 6.1125 36.7032 8.81435 37.2804C5.28705 35.9899 3.75258 34.0279 4.21407 31.3861ZM27.8207 21.9984C27.1106 23.1423 26.6627 24.481 26.476 26.0156C26.4425 25.9925 26.4697 26.1748 26.5557 26.5592C27.4913 24.4443 30.0736 23.2973 28.8926 19.3691C28.7762 19.9191 28.215 20.6492 27.206 21.5605C26.3963 22.2204 25.981 23.2009 25.9579 24.5071C25.9579 24.5071 26.0114 24.636 26.1173 24.8947C26.4624 23.6922 27.0298 22.7274 27.8207 21.9984ZM26.6092 27.7198C27.3329 26.9834 28.4877 26.3047 30.0673 25.6845C28.8423 26.51 27.7305 27.458 26.732 28.5254C29.288 28.9496 31.0837 27.4244 32.122 23.9478C31.2221 24.7994 28.3849 24.3553 26.6092 27.7198ZM29.3468 28.8396C30.4019 29.0282 31.1487 29.2471 31.5871 29.4996C31.199 29.4063 30.2593 29.3571 28.7762 29.3508C29.2513 29.7216 29.5796 30.1071 29.7684 30.5073C30.9431 30.5471 32.1482 29.6651 33.5726 30.1721C32.6129 29.002 31.435 28.4217 30.0411 28.4353C29.911 28.561 29.6824 28.694 29.3468 28.8396ZM30.1376 31.3861C30.5991 34.0279 29.0657 35.9909 25.5373 37.2804C28.2392 36.7032 30.1911 36.0402 31.392 35.2912C34.0771 33.6131 32.6097 32.155 30.1376 31.3861Z" fill="#90BB50"/>
<path fill-rule="evenodd" clip-rule="evenodd" d="M25.43 25.0273C25.6555 26.168 26.0404 27.3611 25.8181 28.4181C25.5422 29.7473 23.7969 30.8745 22.6285 31.4118C22.2771 31.8298 21.6593 32.1545 21.1978 32.5557C20.3147 33.3214 19.7473 33.7195 19.5019 33.7457C18.8379 33.9541 18.3041 33.8253 17.6664 33.9908C17.036 34.0798 17.4807 33.3979 17.9422 33.3413C19.1473 33.0533 19.7011 32.3535 19.6613 31.5909C19.6413 31.1761 19.1935 31.0504 18.8379 31.1133C17.9516 31.3521 17.5961 30.9708 17.6066 30.7383C17.6171 30.5225 17.9653 30.6052 18.1709 30.5822C18.5526 30.5393 18.8579 30.4659 19.0834 30.3633C19.5816 30.1014 20.0693 30.0721 20.5507 30.2742C22.0548 29.0539 21.7852 26.8992 23.993 26.4152C23.7906 26.299 23.5179 26.2665 23.177 26.3189C23.0711 26.1795 23.0208 26.0999 22.9809 25.8611C23.369 25.3468 23.5022 24.5517 23.2599 24.1641C23.4529 23.8363 23.2337 23.3722 23.1666 23.2329C23.2599 22.5437 23.0669 21.7308 22.7984 21.3904C22.9075 22.2451 22.789 22.8223 22.6851 23.2465C20.6965 24.2846 17.2416 22.7626 15.9137 21.0688C15.4291 20.147 14.6991 19.4011 13.7269 18.825C14.46 18.5296 15.0274 18.0928 15.4197 17.5093C16.1728 17.8047 18.0985 17.8047 18.8516 17.5093C19.247 18.0928 19.8113 18.5307 20.5476 18.825C21.4999 19.2094 23.2494 19.5247 23.9794 20.2004C24.7031 20.8928 25.0419 21.5695 25.0513 22.3415C25.1552 23.3733 25.281 24.2678 25.43 25.0273ZM16.3658 33.3413C15.1606 33.0533 14.6068 32.3535 14.6467 31.5909C14.6666 31.1761 15.1145 31.0504 15.47 31.1133C16.3563 31.3521 16.7119 30.9708 16.7014 30.7383C16.692 30.5225 16.3427 30.6052 16.1371 30.5822C15.7553 30.5393 15.4501 30.4659 15.2246 30.3633C14.7264 30.1014 14.2387 30.0721 13.7573 30.2742C12.2532 29.0539 12.5228 26.8992 10.3149 26.4152C10.5174 26.299 10.7901 26.2665 11.1309 26.3189C11.3837 26.0371 11.5127 25.616 11.5893 25.0828C11.39 24.7246 11.3669 24.3831 11.5159 24.0646C11.1446 23.1994 11.1446 22.308 11.5096 21.3893C11.4005 22.2441 11.4865 22.9773 11.7655 23.5807C12.5091 22.1257 11.7991 20.8289 10.5174 20.0234C9.66149 20.7797 9.26921 21.5056 9.25558 22.3404C9.15279 23.3712 9.02693 24.2668 8.87694 25.0252C8.65144 26.1659 8.26651 27.359 8.48572 28.416C8.76472 29.7452 10.51 30.8724 11.6784 31.4097C12.0267 31.8277 12.6476 32.1524 13.1091 32.5536C13.9922 33.3193 14.5596 33.7174 14.8051 33.7436C15.469 33.952 16.0029 33.8232 16.6406 33.9887C17.272 34.0798 16.8231 33.3979 16.3658 33.3413ZM9.35207 12.5798C8.84443 11.4464 7.88787 10.7529 7.89521 9.92122C7.90151 8.84439 9.007 8.65793 9.70449 9.50641C9.90692 9.75153 10.1031 10.0794 10.2918 10.4911C10.2656 9.22149 9.52828 8.98895 9.52828 7.47426C9.52514 3.65924 13.1101 1.24265 16.8933 0.947256C17.0895 0.937829 17.2447 0.937829 17.4377 0.947256C21.2251 1.24265 24.8059 3.65924 24.8059 7.47426C24.8028 8.98895 24.0686 9.22149 24.0423 10.4911C24.2311 10.0804 24.4241 9.75153 24.6266 9.50641C25.3272 8.65793 26.4316 8.84334 26.439 9.92122C26.4421 10.7529 25.4898 11.4464 24.9821 12.5798C24.5773 13.4513 23.7707 13.2565 23.9469 12.9904C24.2353 12.4572 24.1095 11.8602 24.807 11.7376C25.5202 11.2201 25.5537 10.7959 24.9129 10.4649C25.0692 10.1464 25.4205 10.0668 25.6502 10.4649C25.73 9.87828 24.8772 9.80495 24.6748 10.4115C24.4986 10.9583 24.7409 11.2201 24.4032 11.4391C23.9448 11.834 23.52 12.5861 23.1319 13.6996C22.0139 15.9004 20.0252 17.0903 17.1671 17.2695C14.309 17.0903 12.3245 15.9004 11.2054 13.6996C10.8173 12.5861 10.3925 11.8329 9.93104 11.4391C9.59226 11.2201 9.83769 10.9583 9.65834 10.4115C9.45906 9.80495 8.60319 9.87828 8.68605 10.4649C8.9147 10.0668 9.26712 10.1464 9.4234 10.4649C8.7794 10.7959 8.81611 11.2212 9.52933 11.7376C10.2226 11.8602 10.0968 12.4572 10.3894 12.9904C10.5604 13.2565 9.75379 13.4513 9.35207 12.5798ZM20.7332 7.30246C21.2482 7.09401 21.7884 7.15372 22.36 7.48787C21.8691 6.8049 21.245 6.62578 20.4815 6.94422C20.1165 7.09715 20.0861 7.56748 20.7332 7.30246ZM19.2501 9.21521C20.4616 10.7666 21.5807 10.8158 22.6159 9.36395C21.6667 10.1831 20.5444 10.1339 19.2501 9.21521ZM16.3427 11.7774C16.7538 12.3944 17.6601 12.341 17.9296 11.6747C18.1289 11.1877 17.7408 11.0944 17.6244 10.5843C17.3957 10.8797 17.9831 11.3563 17.5248 11.768C17.1388 12.1095 16.7476 12.0299 16.3427 11.7774ZM15.297 12.7558C15.5057 14.6779 18.8285 14.6779 19.0372 12.7558C18.0649 14.261 16.2661 14.261 15.297 12.7558ZM12.0403 7.48787C12.6109 7.15267 13.1521 7.09296 13.6671 7.30246C14.3142 7.56748 14.2848 7.09715 13.9156 6.94422C13.1563 6.62682 12.5322 6.80595 12.0403 7.48787ZM11.7854 9.365C12.8175 10.8168 13.9398 10.7676 15.1512 9.21625C13.8559 10.1339 12.7346 10.1831 11.7854 9.365Z" fill="#FFCF93"/>
<path fill-rule="evenodd" clip-rule="evenodd" d="M27.1163 36.2424C28.7661 35.3803 29.709 33.9945 29.944 32.0859C34.1625 33.3084 28.742 35.7553 27.1163 36.2424ZM29.6881 30.9117C31.1921 30.544 32.4864 30.2989 33.572 30.1721C33.2269 29.9668 32.865 29.8505 32.4801 29.8244C30.7978 29.9207 29.6849 29.6987 29.1448 29.1581C29.9576 29.1047 30.7715 29.2178 31.5875 29.4996C31.1397 29.0953 30.4422 28.7737 29.4961 28.5349C31.4743 26.5195 32.3511 24.988 32.1214 23.9468C31.4638 25.3222 30.3488 26.42 28.7756 27.2349C27.9994 27.5062 27.2621 27.8844 26.5719 28.3757C27.5316 27.302 28.6958 26.4032 30.0667 25.6836C28.4829 26.1843 27.3156 26.6881 26.5614 27.2014C28.3277 24.8152 29.3294 23.0313 29.5748 21.8507C29.5612 20.4021 29.3356 19.5735 28.8909 19.3682C29.3461 22.6039 26.4177 24.0652 26.3422 26.7803C26.1891 25.0802 26.681 23.4849 27.819 21.9974C26.9726 22.5212 26.2656 23.3665 25.7014 24.5334C26.0527 27.2412 26.2258 28.5946 26.2258 28.5946C28.2218 29.155 29.3734 29.927 29.6881 30.9117ZM6.53038 21.9984C7.66839 23.487 8.1603 25.0813 8.00717 26.7814C7.9306 24.0662 5.00324 22.605 5.46159 19.3692C5.01688 19.5745 4.78823 20.4031 4.77774 21.8518C5.02003 23.0323 6.02273 24.8152 7.78796 27.2024C7.03488 26.6892 5.86645 26.1843 4.28268 25.6846C5.65353 26.4043 6.81881 27.302 7.78061 28.3767C7.08732 27.8865 6.34998 27.5083 5.57382 27.236C4.00368 26.421 2.88561 25.3232 2.22797 23.9479C1.99932 24.9891 2.87512 26.5205 4.85326 28.5359C3.90719 28.7748 3.21075 29.0963 2.76184 29.5007C3.57785 29.2189 4.39176 29.1058 5.20463 29.1592C4.66656 29.6997 3.55163 29.9218 1.86926 29.8254C1.48748 29.8516 1.12248 29.9679 0.777405 30.1732C1.86297 30.2989 3.15726 30.544 4.66132 30.9127C4.97702 29.9281 6.12867 29.156 8.12359 28.5956C8.12359 28.5956 8.2998 27.2433 8.64802 24.5345C8.08373 23.3675 7.37681 22.5222 6.53038 21.9984ZM4.29002 32.0849C0.068378 33.3084 5.49201 35.7543 7.11774 36.2414C5.46474 35.3803 4.52287 33.9945 4.29002 32.0849Z" fill="#5E8123"/>
<path fill-rule="evenodd" clip-rule="evenodd" d="M14.969 31.5146C15.2847 31.7472 15.5532 31.8593 15.7819 31.853C15.9277 31.8195 16.0839 31.7639 16.2528 31.6906C16.4584 31.6079 16.6744 31.8268 16.4584 32.0321C16.1962 32.2877 15.9707 32.2678 15.6854 32.1285C15.3466 31.9588 15.1075 31.7566 14.969 31.5146ZM16.3954 33.0597C16.5549 33.1089 16.7468 33.2126 16.8433 33.0534C16.9524 32.8743 16.7867 32.5789 16.3587 32.5988C15.8207 32.5422 15.356 32.2971 14.9711 31.8593C15.0949 32.4103 15.569 32.8104 16.3954 33.0597ZM18.5131 31.853C18.3704 31.8195 18.211 31.7639 18.0422 31.6906C17.8366 31.6079 17.6205 31.8268 17.8366 32.0321C18.0988 32.2877 18.3243 32.2678 18.6096 32.1285C18.9484 31.9598 19.1875 31.7577 19.327 31.5157C19.0113 31.7472 18.7428 31.8593 18.5131 31.853ZM17.4516 33.0524C17.5481 33.2116 17.7401 33.1089 17.8995 33.0587C18.726 32.8104 19.2001 32.4092 19.3239 31.8582C18.9389 32.2961 18.4743 32.5412 17.9362 32.5978C17.5072 32.5789 17.3415 32.8743 17.4516 33.0524ZM20.9066 20.2802C19.8147 20.4959 18.5529 20.0748 17.6667 20.8929C18.0914 20.7337 18.5729 20.6541 19.1067 20.6573C20.1063 20.6489 20.7073 20.5263 20.9066 20.2802ZM22.848 23.4195C20.0832 23.5756 18.0684 22.4946 16.1731 20.6447C16.3587 20.6709 16.6178 20.7411 16.9503 20.8605C16.7112 20.608 16.343 20.3901 15.8385 20.2005C15.1851 19.4778 14.4477 18.954 13.6275 18.623C13.6275 18.623 13.531 18.6796 13.3359 18.7885C13.3359 18.7885 13.9768 19.3552 15.2511 20.4928C15.785 21.4942 17.2461 22.5281 19.6322 23.5892C20.8961 23.8312 21.9691 23.7746 22.848 23.4195ZM23.5151 26.4363C23.578 26.165 23.4784 25.7335 23.2162 25.15C22.9539 25.657 22.8207 25.9126 22.8207 25.9126C22.9508 26.3599 23.1836 26.5358 23.5151 26.4363ZM19.6616 31.7503C19.821 31.0443 19.4256 30.7322 18.4732 30.8191C18.0149 30.839 17.7432 30.7458 17.6572 30.5373C17.2157 31.015 17.6279 31.2737 18.9022 31.3198C19.2274 31.1302 19.4822 31.2758 19.6616 31.7503ZM25.4838 24.07C25.2709 24.223 25.3013 25.1437 25.5698 26.8344C25.7554 28.6707 24.6898 29.7045 23.2896 30.5069C21.9051 31.302 21.1184 31.9986 19.8871 33.0765C19.1833 33.7133 18.6159 33.5143 17.7233 33.6264C17.5209 33.6599 17.4946 33.5803 17.6436 33.3876C17.6436 33.3876 17.4842 33.4703 17.1653 33.64C17.1223 34.2371 17.8324 34.3523 19.2892 33.9909C19.9102 33.905 21.0188 33.1163 22.6089 31.6204C23.6913 31.2297 24.7433 30.4472 25.7722 29.2698C26.3826 28.4716 26.283 26.738 25.4838 24.07ZM16.6409 30.5467C16.558 30.7552 16.2822 30.8484 15.8249 30.8285C14.8725 30.7426 14.4771 31.0537 14.6397 31.7598C14.819 31.2852 15.0707 31.1396 15.4001 31.3292C16.6713 31.2831 17.0856 31.0244 16.6409 30.5467ZM16.5748 33.6358C15.6854 33.5227 15.1179 33.7217 14.411 33.0859C13.1828 32.0049 12.393 31.3125 11.0085 30.5164C9.6083 29.714 8.54267 28.6801 8.72831 26.8407C8.99997 25.1531 9.03039 24.2324 8.81747 24.0795C8.01404 26.7474 7.91755 28.4821 8.52903 29.2803C9.55481 30.4567 10.6068 31.2391 11.6892 31.6309C13.2824 33.1257 14.3879 33.9145 15.0089 33.9972C16.4689 34.3617 17.1758 34.2455 17.1328 33.6494C16.8139 33.4808 16.6545 33.397 16.6545 33.397C16.8045 33.5897 16.7772 33.6693 16.5748 33.6358ZM10.7138 26.3002C11.1187 26.5191 11.3179 26.628 11.3179 26.628C11.6567 25.8759 11.8256 25.4978 11.8256 25.4978C11.8256 25.4978 11.7396 25.1228 11.5634 24.3769C11.1312 25.0704 10.9886 26.1944 10.7138 26.3002ZM10.6341 13.1938C10.9498 14.5692 12.3007 15.9257 14.69 17.2644C14.69 17.2644 14.7592 17.3702 14.8987 17.5797C15.4169 17.8845 16.1699 18.1066 17.1653 18.2459C18.1607 18.1066 18.9179 17.8845 19.4319 17.5797C19.5745 17.3712 19.6448 17.2644 19.6448 17.2644C22.0341 15.9257 23.385 14.5692 23.7007 13.1938C24.072 13.4787 24.4507 13.4494 24.8429 13.1079C25.8551 11.1386 26.0481 10.111 25.4271 10.0282C24.8534 10.1215 24.4444 10.3435 24.2021 10.6944C24.3751 10.0775 24.5608 9.63332 24.7559 9.36516C25.0076 8.49678 25.1314 8.06206 25.1314 8.06206C24.7863 6.54423 24.3846 5.79841 23.9294 5.82774C24.2178 7.19368 24.1056 8.38679 23.5937 9.40496C23.4175 9.88891 23.2382 10.7248 23.0494 11.9148C21.7845 15.1065 20.0392 16.7176 17.8156 16.7574C17.5828 16.7574 17.3646 16.7574 17.1653 16.7574C16.966 16.7574 16.75 16.7574 16.515 16.7574C14.2946 16.7176 12.5482 15.1065 11.2812 11.9148C11.0956 10.7248 10.9131 9.88891 10.7369 9.40496C10.2261 8.38679 10.116 7.19368 10.4054 5.82774C9.95023 5.79841 9.54957 6.54423 9.2003 8.06206C9.2003 8.06206 9.32616 8.49678 9.57579 9.36516C9.77193 9.63332 9.95757 10.0775 10.1338 10.6944C9.8915 10.3435 9.48349 10.1215 8.90872 10.0282C8.28465 10.111 8.48078 11.1386 9.49293 13.1079C9.87996 13.4483 10.2617 13.4787 10.6341 13.1938Z" fill="#D79D5D"/>
<path fill-rule="evenodd" clip-rule="evenodd" d="M17.1653 0.610107C14.4204 0.957879 12.6615 1.69427 11.8874 2.81406C13.0852 2.1248 14.4099 1.66075 15.8573 1.41564C15.8909 1.79693 16.3283 1.98862 17.1653 1.99281C18.0054 1.98967 18.4396 1.79693 18.4763 1.41564C19.9238 1.66075 21.2443 2.1248 22.4462 2.81406C21.6732 1.69427 19.9143 0.957879 17.1653 0.610107Z" fill="white"/>
<path fill-rule="evenodd" clip-rule="evenodd" d="M16.406 33.3582C16.0148 33.3414 15.6456 33.2618 15.3036 33.1194C14.603 32.7088 14.3806 32.228 14.6366 31.677C14.796 32.3369 15.3865 32.9005 16.406 33.3582ZM15.8344 30.553C15.612 30.2178 14.9082 30.023 13.723 29.9601C13.723 29.9601 13.228 29.1347 12.2462 27.4869C11.7952 26.7673 11.1481 26.4133 10.3048 26.4258C11.0285 26.8469 11.6127 27.5561 12.0574 28.5502C12.2137 28.8487 13.3486 30.7248 13.6936 30.509C14.4604 30.0366 15.1348 30.6556 15.8344 30.553ZM10.9824 20.1052C10.5744 19.8265 10.3688 19.6841 10.3688 19.6841C9.23077 20.9767 8.75563 22.3228 8.94862 23.718C9.36607 21.799 10.0457 20.5954 10.9824 20.1052ZM17.8922 33.3477C18.2834 33.331 18.6526 33.2514 18.9977 33.1089C19.6983 32.6983 19.9207 32.2175 19.6648 31.6665C19.5054 32.3306 18.9149 32.89 17.8922 33.3477ZM22.052 27.4775C21.0692 29.1252 20.5783 29.9507 20.5783 29.9507C19.3931 30.0135 18.6893 30.2094 18.467 30.5436C19.1676 30.6462 19.8378 30.0261 20.6046 30.5006C20.9496 30.7164 22.0887 28.8403 22.2408 28.5449C22.6886 27.5467 23.2728 26.8406 23.9934 26.4164C23.1501 26.4028 22.503 26.7579 22.052 27.4775ZM22.3467 19.1237C20.3423 18.4271 19.3396 18.0762 19.3396 18.0762C20.7766 20.0423 24.3217 19.3363 25.1377 21.6335C24.7895 20.3042 23.8571 19.4683 22.3467 19.1237ZM14.0156 11.3669C14.0954 11.3135 14.0922 11.171 14.0094 11.0516C13.9265 10.929 13.7933 10.8725 13.7178 10.9259C13.6381 10.9825 13.6412 11.1218 13.7241 11.2443C13.8069 11.3638 13.9391 11.4203 14.0156 11.3669ZM13.4514 11.3501C13.5206 11.3009 13.5174 11.1742 13.4419 11.0621C13.3654 10.9531 13.2489 10.9029 13.1766 10.9531C13.1073 10.9992 13.1105 11.1291 13.186 11.2381C13.2594 11.3501 13.379 11.4004 13.4514 11.3501ZM20.3423 11.3669C20.4189 11.4203 20.5479 11.3638 20.6308 11.2443C20.7136 11.1218 20.7199 10.9825 20.6402 10.9259C20.5637 10.8725 20.4315 10.929 20.3486 11.0516C20.2658 11.171 20.2626 11.3135 20.3423 11.3669ZM20.9066 11.3501C20.98 11.3994 21.0954 11.3501 21.172 11.237C21.2486 11.1281 21.2517 10.9982 21.1814 10.9521C21.108 10.9029 20.9884 10.9521 20.9161 11.061C20.8406 11.1742 20.8364 11.3009 20.9066 11.3501Z" fill="#FFE9CE"/>
<path fill-rule="evenodd" clip-rule="evenodd" d="M29.8647 31.4976C29.5395 34.6297 26.9572 36.7781 22.1178 37.9356C19.8942 39.069 18.7824 39.6357 18.7824 39.6357C17.5742 39.0187 16.7613 38.8962 16.3397 39.268C15.9547 40.0505 14.952 39.7226 13.3294 38.2865C11.2223 38.0079 9.28715 37.3385 7.52403 36.2774C5.00153 34.6265 4.10895 32.9621 4.84525 31.285C4.71939 33.1747 6.15632 34.6129 9.1571 35.6007C9.1571 35.6007 8.87495 35.3022 8.30752 34.7061C10.1797 35.9328 11.3807 35.7736 13.127 37.0767C15.0317 38.6741 16.4729 38.9663 18.3482 37.0138C18.3482 37.0138 18.1426 37.5313 17.7273 38.5683C18.0629 38.8365 18.6167 38.7967 19.3971 38.4457C21.0238 37.216 22.0727 36.5194 22.5405 36.357C24.0802 35.8165 25.2319 35.2666 26.0028 34.7061C25.429 35.2928 25.1396 35.585 25.1396 35.585C27.554 35.1576 29.1315 33.7948 29.8647 31.4976ZM12.3897 22.8065C11.9219 23.765 11.6859 24.2447 11.6859 24.2447C11.7792 25.0796 11.8254 25.4975 11.8254 25.4975C11.4866 26.2496 11.3177 26.6278 11.3177 26.6278C12.118 27.2144 12.8375 28.1886 13.4784 29.5482C13.5979 28.8317 13.6609 28.1393 13.6714 27.4731C14.4612 28.5269 15.5803 29.2832 17.0267 29.7336C15.702 28.4274 14.9321 27.4899 14.7066 26.9295C14.2514 25.663 13.9168 24.559 13.707 23.6141C13.0064 21.6417 12.1306 20.3983 11.0713 19.885C12.0803 21.2216 12.5187 22.1969 12.3897 22.8065ZM19.3698 30.0929C20.1764 29.9966 20.5781 29.9505 20.5781 29.9505C20.8372 29.5126 20.9693 29.2979 20.9693 29.2979C18.815 28.7741 17.185 27.624 16.0764 25.8443C16.1897 26.9431 17.2889 28.3625 19.3698 30.0929ZM21.7025 28.0639C21.9678 27.3841 22.3999 26.8541 22.9967 26.4728C22.7838 26.191 22.681 26.0517 22.681 26.0517C22.9726 24.978 23.1195 24.4375 23.1195 24.4375C21.7518 25.1665 20.4638 25.4158 19.2523 25.1896C19.803 25.6274 20.5833 25.9019 21.5892 26.0087C21.1675 26.3502 20.6966 26.5754 20.1848 26.6917C18.7447 25.2493 17.828 23.9169 17.4368 22.6944C16.6638 22.2136 16.2788 21.9748 16.2788 21.9748C17.5207 24.8879 19.3299 26.92 21.7025 28.0639ZM9.21269 31.3625C10.3612 31.4914 10.9349 31.5553 10.9349 31.5553C9.85039 30.8681 8.73441 29.94 8.03482 28.7961C7.89847 29.3272 8.26662 30.4868 9.21269 31.3625ZM26.2734 28.7961C25.5727 29.94 24.4547 30.8681 23.3722 31.5542C23.3722 31.5542 23.946 31.4914 25.0945 31.3615C26.0405 30.4868 26.4097 29.3272 26.2734 28.7961Z" fill="#B65712"/>
<path fill-rule="evenodd" clip-rule="evenodd" d="M22.7117 23.8007C21.2916 24.7455 18.6757 24.271 17.7097 23.0915C19.9071 23.5922 21.0021 23.8405 21.0021 23.8405C21.9817 23.6917 22.5533 23.6781 22.7117 23.8007ZM10.3845 19.4389C10.6666 19.7667 10.8061 19.9291 10.8061 19.9291C11.7019 19.7667 12.6784 20.4036 13.7366 21.8282C12.8315 19.8956 11.7124 19.0974 10.3845 19.4389ZM13.5741 19.001C12.5252 18.4312 11.7092 18.4605 11.125 19.0974C11.1313 19.2629 11.3379 19.3729 11.7386 19.4221C12.0176 19.0241 12.499 18.9811 13.1787 19.2996C13.9852 19.6672 14.7813 20.6058 15.5648 22.1142C16.3315 23.3209 16.985 24.2584 17.5335 24.9351C16.6535 22.86 16.2161 21.8261 16.2161 21.8261C15.0477 20.3701 14.1656 19.4284 13.5741 19.001ZM26.3764 28.836C27.2963 29.2509 28.4112 29.7474 29.4537 31.2862C29.3069 29.8542 28.2885 29.0382 26.3764 28.836ZM22.6089 31.6203C21.9114 32.2499 21.5601 32.5652 21.5601 32.5652C23.3924 31.9126 25.3936 31.7963 27.5648 32.2174C26.6953 31.5679 25.0454 31.372 22.6089 31.6203ZM6.74393 32.2174C8.91506 31.7963 10.9163 31.9126 12.7486 32.5652C12.7486 32.5652 12.3973 32.2499 11.6966 31.6203C9.26328 31.372 7.61343 31.5679 6.74393 32.2174ZM4.83606 31.2862C5.87862 29.7484 6.99356 29.2509 7.9134 28.836C6.00134 29.0382 4.9829 29.8542 4.83606 31.2862Z" fill="#FFBB4D"/>
<path d="M15.1513 9.21543C13.9398 10.7668 12.8176 10.816 11.7855 9.36417C12.7347 10.1833 13.8559 10.1341 15.1513 9.21543ZM13.6671 7.30268C14.3143 7.5677 14.2849 7.09737 13.9157 6.94444C13.1553 6.626 12.5312 6.80512 12.0404 7.48809C12.612 7.15394 13.1532 7.09423 13.6671 7.30268ZM22.616 9.36522C21.6668 10.1844 20.5445 10.1341 19.2502 9.21648C20.4616 10.7668 21.5797 10.8171 22.616 9.36522ZM20.7333 7.30268C21.2483 7.09423 21.7884 7.15394 22.3601 7.48809C21.8692 6.80512 21.2451 6.626 20.4816 6.94444C20.1165 7.09737 20.0861 7.5677 20.7333 7.30268ZM31.7494 35.8608C30.0733 36.9052 27.5938 37.5284 25.6755 37.9359C24.5532 38.1747 23.5746 38.3738 21.5766 38.4701C21.1612 38.7812 20.1396 39.4286 19.7411 39.7533C18.8747 40.5358 17.9391 39.7565 17.142 39.3322C16.3816 39.879 15.4229 40.4091 14.5429 39.7271C13.9818 39.2725 13.3745 38.9048 12.7903 38.4712C11.2034 38.4314 10.1944 38.2627 8.67458 37.937C6.69644 37.5159 0.313105 36.0305 0.738941 33.1069C0.901513 31.9798 2.286 31.3502 3.35793 30.926C2.05316 30.5929 1.47209 30.4641 0.0917969 30.9051C0.357157 29.0426 1.61578 28.0904 3.50687 27.816C2.37201 26.6061 1.51195 24.8819 1.66823 23.2153C2.38564 23.384 2.59751 23.5861 3.24466 23.7883C3.74601 23.9444 4.41623 24.0701 4.90709 24.266C5.1756 24.3718 5.18609 24.3655 5.42523 24.4943C4.05437 22.568 4.20751 19.9136 5.48816 18.3549C6.25802 19.4255 6.52338 20.0885 7.58587 21.0501C8.02429 21.4115 8.40188 22.0212 8.63473 22.4884C8.79415 20.9799 9.22838 20.5065 9.98565 19.7271C10.0821 19.3029 10.5038 18.9122 11.1404 18.8326C11.6911 18.0668 12.461 18.402 13.192 18.3151C13.8329 18.0564 14.0216 17.9045 14.5062 17.3933C12.8364 16.8235 11.0544 15.5109 10.4471 13.8161C9.714 14.0811 9.027 13.4976 8.73751 12.8576C8.29909 11.8928 7.21353 11.0245 7.22087 9.91726C7.22716 8.92632 7.85123 8.23287 8.86023 8.37219C7.87221 3.36197 12.7316 0.0864258 16.9364 0.0864258H17.3948C21.587 0.0864258 26.5125 3.45101 25.4038 8.31353C26.3992 8.17421 27.1061 8.94308 27.1135 9.9183C27.1198 11.0255 26.0352 11.8908 25.5968 12.8586C25.3178 13.4714 24.6413 14.079 23.9302 13.8203C23.3198 15.5204 21.501 16.88 19.8313 17.4331C21.285 18.9415 23.2002 18.5435 24.5647 19.8266C25.4647 20.6751 25.6167 21.3382 25.7363 22.525C25.9723 22.0243 26.3037 21.4314 26.7652 21.0501C27.8204 20.0959 28.0994 19.4097 28.8797 18.3549C30.2107 20.2373 30.3041 22.6046 28.9196 24.5509C29.6527 24.1528 30.1415 24.0271 30.9313 23.7789C31.6183 23.6364 32.0829 23.3148 32.6839 23.1095C32.8266 24.8295 32.0263 26.5569 30.8453 27.817C32.6672 28.082 34.1481 29.1033 34.3034 30.8202C32.5906 30.5018 32.7668 30.4787 30.9879 30.9333C34.189 32.0416 34.5016 34.1397 31.7494 35.8608ZM30.0408 28.435C29.9118 28.5607 29.6821 28.6938 29.3475 28.8394C30.4027 29.0279 31.1495 29.2469 31.5879 29.4993C31.1998 29.4061 30.26 29.3568 28.777 29.3506C29.2521 29.7214 29.5804 30.1069 29.7692 30.507C30.9439 30.5468 32.149 29.6648 33.5734 30.1718C32.6126 29.0017 31.4348 28.4225 30.0408 28.435ZM26.609 27.7196C27.3327 26.9832 28.4875 26.3044 30.067 25.6843C28.842 26.5097 27.7302 27.4577 26.7317 28.5251C29.2877 28.9494 31.0834 27.4242 32.1218 23.9475C31.2218 24.7992 28.3847 24.355 26.609 27.7196ZM25.9576 24.5069C25.9576 24.5069 26.0111 24.6357 26.1171 24.8945C26.4621 23.6909 27.0296 22.7261 27.8193 21.9971C27.1093 23.141 26.6614 24.4797 26.4747 26.0143C26.4411 25.9912 26.4684 26.1735 26.5544 26.5579C27.49 24.443 30.0723 23.296 28.8913 19.3678C28.7749 19.9178 28.2137 20.6479 27.2047 21.5592C26.396 22.2202 25.9807 23.2007 25.9576 24.5069ZM17.1651 17.2707C20.0232 17.0916 22.0108 15.9016 23.1299 13.7008C23.518 12.5873 23.9428 11.8342 24.4011 11.4403C24.7399 11.2214 24.4976 10.9595 24.6728 10.4127C24.8752 9.80622 25.7279 9.87954 25.6482 10.4661C25.4196 10.0681 25.0672 10.1477 24.9109 10.4661C25.5517 10.7972 25.5182 11.2224 24.8049 11.7389C24.1074 11.8614 24.2344 12.4585 23.9449 12.9917C23.7687 13.2567 24.5752 13.4526 24.9801 12.5811C25.4877 11.4477 26.4401 10.7542 26.437 9.92249C26.4307 8.84566 25.3252 8.6592 24.6245 9.50768C24.4221 9.7528 24.2291 10.0807 24.0403 10.4923C24.0665 9.22276 24.8007 8.99021 24.8039 7.47552C24.8039 3.66051 21.222 1.24392 17.4357 0.948522C17.2427 0.939094 17.0875 0.939094 16.8913 0.948522C13.107 1.24392 9.52311 3.66051 9.52625 7.47552C9.52625 8.99021 10.2636 9.22276 10.2898 10.4923C10.101 10.0817 9.90489 9.7528 9.70246 9.50768C9.00497 8.6592 7.90053 8.84461 7.89319 9.92249C7.88689 10.7542 8.8424 11.4477 9.35005 12.5811C9.75176 13.4526 10.5583 13.2577 10.3853 12.9917C10.0937 12.4585 10.2195 11.8614 9.52521 11.7389C8.81198 11.2214 8.77527 10.7972 9.41927 10.4661C9.26299 10.1477 8.91162 10.0681 8.68192 10.4661C8.59907 9.87954 9.45493 9.80622 9.65421 10.4127C9.83357 10.9595 9.58814 11.2214 9.92692 11.4403C10.3884 11.8352 10.8132 12.5873 11.2013 13.7008C12.3225 15.9016 14.308 17.0916 17.1651 17.2707ZM13.7269 18.8252C14.6992 19.4024 15.4292 20.1482 15.9138 21.069C17.2416 22.7628 20.6966 24.2848 22.6852 23.2467C22.788 22.8225 22.9076 22.2453 22.7985 21.3906C23.067 21.7321 23.26 22.5439 23.1666 23.2331C23.2327 23.3724 23.4519 23.8365 23.26 24.1644C23.5023 24.5519 23.3691 25.348 22.981 25.8613C23.0208 26.1002 23.0701 26.1798 23.1771 26.3191C23.519 26.2657 23.7907 26.2992 23.9931 26.4155C21.7863 26.8994 22.0548 29.0541 20.5508 30.2745C20.0694 30.0723 19.5816 30.1016 19.0834 30.3635C18.8579 30.4662 18.5527 30.5395 18.1709 30.5824C17.9653 30.6055 17.6171 30.5227 17.6066 30.7385C17.5972 30.971 17.9517 31.3513 18.838 31.1135C19.1936 31.0507 19.6414 31.1764 19.6613 31.5912C19.7012 32.3538 19.1464 33.0535 17.9423 33.3415C17.4808 33.3981 17.0361 34.0811 17.6664 33.991C18.3041 33.8255 18.838 33.9543 19.5019 33.7459C19.7474 33.7197 20.3148 33.3216 21.1979 32.5559C21.6594 32.1547 22.2761 31.83 22.6286 31.412C23.797 30.8747 25.5423 29.7476 25.8181 28.4183C26.0405 27.3613 25.6556 26.1672 25.4301 25.0275C25.2811 24.2681 25.1542 23.3735 25.0514 22.3428C25.0409 21.5707 24.7032 20.8941 23.9795 20.2017C23.2495 19.525 21.5 19.2107 20.5476 18.8263C19.8103 18.5309 19.247 18.0941 18.8516 17.5106C18.0986 17.806 16.1729 17.806 15.4198 17.5106C15.0275 18.093 14.4601 18.5309 13.7269 18.8252ZM17.4514 33.0524C17.5479 33.2117 17.7398 33.109 17.8993 33.0587C18.7258 32.8105 19.1999 32.4093 19.3236 31.8583C18.9387 32.2961 18.474 32.5413 17.936 32.5978C17.507 32.579 17.3413 32.8744 17.4514 33.0524ZM17.8363 32.0322C18.0986 32.2878 18.3241 32.2679 18.6093 32.1285C18.9481 31.9599 19.1873 31.7577 19.3268 31.5158C19.0111 31.7483 18.7425 31.8604 18.5139 31.8541C18.3713 31.8206 18.2118 31.7651 18.043 31.6917C17.8363 31.6079 17.6203 31.8269 17.8363 32.0322ZM19.2533 25.1899C21.9384 25.0474 23.196 24.5237 23.0271 23.6186C21.9185 24.4304 18.8852 24.2618 16.6711 22.3459C17.3916 23.7213 18.2506 24.9448 19.2533 26.0216C19.9466 26.7444 20.7207 27.2974 21.5703 27.6787C21.9258 27.0387 22.3139 26.6344 22.7282 26.4689C22.7083 26.3557 22.6716 26.2866 22.6191 26.2636C22.0517 26.7276 21.6133 26.9036 21.3112 26.7936C22.1975 26.3589 22.7355 25.6571 22.9243 24.6892C21.6993 25.5418 20.4753 25.7073 19.2533 25.1899ZM10.7062 19.6643C11.8086 20.2708 12.4819 21.2188 12.7274 22.5156C13.428 25.0809 14.2377 26.9874 15.1502 28.2339C13.6136 26.935 13.2014 24.7834 12.3917 23.1818C12.2889 23.6291 12.1358 23.9873 11.9365 24.2524C11.8138 24.6672 11.8799 24.995 12.139 25.2339C12.6529 25.8508 12.9088 26.5202 12.9088 27.2524C12.6067 26.4898 12.2879 25.9724 11.9533 25.6979C11.84 26.1588 11.7173 26.4406 11.5747 26.5401C12.1222 26.7957 12.5375 27.2461 12.8228 27.8987C13.3409 29.0625 13.729 29.7025 13.9912 29.8209C14.8072 29.6753 15.3558 30.1425 16.1582 30.2315C16.7518 30.1854 17.0445 30.3509 17.0382 30.7217C16.9889 31.0402 16.8326 31.2287 16.5735 31.2853C17.0014 31.4644 17.0948 31.8059 16.905 32.2239C16.9742 32.2972 17.1042 32.3433 17.164 32.4753C17.2437 32.3391 17.3371 32.2333 17.443 32.1642C17.1745 31.7336 17.2773 31.4414 17.7482 31.2853C17.4063 31.1261 17.2532 30.9208 17.2972 30.662C17.3507 30.3143 17.636 30.1582 18.1573 30.2043C18.9376 30.088 19.6341 29.6177 20.3714 29.8031C20.9158 29.1369 21.1979 28.6194 21.2178 28.2486C19.3058 27.2472 17.8458 25.6633 16.9459 23.9559C16.5274 23.1671 15.7512 21.4859 14.695 20.2603C13.643 19.0368 12.1022 18.2941 11.452 19.216C12.4777 19.5113 13.2382 20.3797 13.7353 21.8284C12.8375 20.1451 11.8285 19.4223 10.7062 19.6643ZM14.9719 31.8593C15.0946 32.4093 15.5698 32.8105 16.3963 33.0598C16.5557 33.109 16.7476 33.2127 16.8441 33.0535C16.9532 32.8744 16.7875 32.579 16.3596 32.5989C15.8215 32.5423 15.3568 32.2972 14.9719 31.8593ZM15.6851 32.1285C15.9704 32.2679 16.1959 32.2878 16.4581 32.0322C16.6742 31.8269 16.4581 31.6079 16.2526 31.6907C16.0837 31.764 15.9274 31.8195 15.7816 31.853C15.553 31.8593 15.2834 31.7472 14.9688 31.5147C15.1072 31.7567 15.3464 31.9588 15.6851 32.1285ZM8.48579 28.4183C8.76478 29.7476 10.5101 30.8747 11.6785 31.412C12.0267 31.83 12.6476 32.1547 13.1091 32.5559C13.9923 33.3216 14.5597 33.7197 14.8051 33.7459C15.4691 33.9543 16.0029 33.8255 16.6406 33.991C17.271 34.08 16.8231 33.3981 16.3648 33.3415C15.1597 33.0535 14.6059 32.3538 14.6457 31.5912C14.6656 31.1764 15.1135 31.0507 15.4691 31.1135C16.3554 31.3523 16.7109 30.971 16.7004 30.7385C16.691 30.5227 16.3417 30.6055 16.1361 30.5824C15.7544 30.5395 15.4491 30.4662 15.2236 30.3635C14.7254 30.1016 14.2377 30.0723 13.7563 30.2745C12.2522 29.0541 12.5218 26.8994 10.3139 26.4155C10.5164 26.2992 10.7891 26.2667 11.13 26.3191C11.3827 26.0373 11.5117 25.6162 11.5883 25.083C11.389 24.7248 11.3659 24.3833 11.5149 24.0649C11.1436 23.1996 11.1436 22.3082 11.5086 21.3895C11.3995 22.2443 11.4855 22.9775 11.7645 23.5809C12.5082 22.1259 11.7981 20.8291 10.5164 20.0236C9.66051 20.7799 9.26824 21.5058 9.2546 22.3407C9.15181 23.3714 9.02595 24.267 8.87596 25.0254C8.65151 26.1682 8.26658 27.3613 8.48579 28.4183ZM7.79564 26.559C7.88165 26.1745 7.90892 25.9923 7.87535 26.0153C7.68971 24.4807 7.24185 23.141 6.53072 21.9981C7.32051 22.7272 7.88794 23.6919 8.23721 24.8955C8.34 24.6368 8.39349 24.5079 8.39349 24.5079C8.37041 23.2017 7.95507 22.2202 7.1485 21.5613C6.1395 20.65 5.57521 19.9209 5.46194 19.3699C4.27673 23.297 6.86006 24.444 7.79564 26.559ZM7.61943 28.5251C6.61987 27.4577 5.50809 26.5097 4.28407 25.6843C5.8668 26.3044 7.01949 26.9842 7.74215 27.7196C5.96644 24.355 3.12823 24.7992 2.22936 23.9475C3.26773 27.4242 5.06337 28.9494 7.61943 28.5251ZM4.583 30.507C4.77179 30.1058 5.10113 29.7214 5.57521 29.3506C4.09108 29.3568 3.15236 29.4071 2.76428 29.4993C3.2027 29.2469 3.94949 29.029 5.00464 28.8394C4.669 28.6938 4.44035 28.5607 4.31134 28.435C2.91741 28.4214 1.7385 29.0017 0.779846 30.1718C2.20314 29.6648 3.41143 30.5468 4.583 30.507ZM8.81408 37.2791C5.28678 35.9896 3.7523 34.0277 4.2138 31.3859C1.74479 32.1547 0.274298 33.6139 2.95937 35.291C4.16136 36.0399 6.11223 36.703 8.81408 37.2791ZM19.16 34.2592C17.9884 34.3985 17.3245 34.3723 17.1651 34.1733C16.9889 34.4781 16.0868 34.4718 14.4538 34.1471C13.0966 33.1823 12.1767 32.4669 11.6953 32.006C9.94265 31.698 8.28965 31.7703 6.74259 32.2186C7.57224 31.6456 8.71129 31.2843 10.1577 31.1313C8.94624 30.3918 8.27287 29.6795 8.13652 28.9902C6.37759 29.139 5.27839 29.9047 4.84416 31.2874C4.27988 33.6506 6.84223 36.2526 11.1142 37.3566C9.37207 36.0441 8.43544 35.1621 8.30643 34.7085C9.37207 35.6199 10.4671 36.2934 11.5894 36.7271C12.2764 36.9523 13.4616 37.7484 15.1376 39.1102C15.4428 39.349 15.725 39.3982 15.9809 39.2589C17.8919 38.2407 18.9513 36.5731 19.16 34.2592ZM26.0006 34.7075C25.8716 35.1621 24.935 36.0431 23.1897 37.3556C27.4648 36.2515 30.0272 33.6495 29.4629 31.2863C29.0276 29.9036 27.9295 29.1379 26.1674 28.9892C26.0342 29.6784 25.3608 30.3918 24.1494 31.1303C25.5968 31.2832 26.7348 31.6435 27.5645 32.2176C26.1674 31.6205 24.5238 31.5252 22.7681 31.83C22.2898 32.294 21.0616 33.2525 19.7043 34.2162C19.7841 36.3049 18.4132 38.2701 17.7828 38.9101C18.0388 39.0463 18.6523 39.5931 19.1705 39.1091C20.8466 37.7463 22.0286 36.9513 22.7188 36.726C23.84 36.2913 24.936 35.6188 26.0006 34.7075ZM30.1373 31.3859C30.5988 34.0277 29.0654 35.9907 25.537 37.2802C28.2389 36.703 30.1908 36.0399 31.3918 35.291C34.0768 33.6129 32.6095 32.1547 30.1373 31.3859ZM19.0373 12.756C18.065 14.2613 16.2662 14.2613 15.2971 12.756C15.5058 14.6782 18.8286 14.6782 19.0373 12.756ZM17.9286 11.675C18.1279 11.1879 17.7398 11.0947 17.6234 10.5845C17.3948 10.8799 17.9821 11.3565 17.5238 11.7682C17.1388 12.1097 16.7466 12.0301 16.3417 11.7776C16.7539 12.3946 17.6601 12.3412 17.9286 11.675Z" fill="#370F0E"/>
</g>
<defs>
<clipPath id="clip0_3001_7970">
<rect width="34.2105" height="40" fill="white" transform="translate(0.0917969 0.0864258)"/>
</clipPath>
</defs>
</svg>
