<svg width="25" height="25" viewBox="0 0 25 25" fill="none" xmlns="http://www.w3.org/2000/svg">
<path d="M12.4119 1.62695C10.3205 1.62695 8.2761 2.24712 6.53718 3.40902C4.79827 4.57092 3.44296 6.22238 2.64262 8.15456C1.84229 10.0867 1.63289 12.2128 2.04089 14.264C2.4489 16.3152 3.45599 18.1994 4.93481 19.6782C6.41364 21.157 8.29777 22.1641 10.349 22.5721C12.4001 22.9801 14.5263 22.7707 16.4584 21.9704C18.3906 21.17 20.0421 19.8147 21.204 18.0758C22.3659 16.3369 22.986 14.2925 22.986 12.2011C22.986 9.39667 21.872 6.70709 19.8889 4.72405C17.9059 2.74101 15.2163 1.62695 12.4119 1.62695ZM12.4119 21.2647C10.6193 21.2647 8.86692 20.7331 7.37643 19.7372C5.88593 18.7413 4.72423 17.3257 4.03823 15.6696C3.35223 14.0134 3.17274 12.1911 3.52246 10.4329C3.87218 8.67474 4.7354 7.05977 6.00296 5.7922C7.27053 4.52464 8.8855 3.66142 10.6437 3.3117C12.4018 2.96198 14.2242 3.14147 15.8804 3.82747C17.5365 4.51347 18.952 5.67517 19.948 7.16567C20.9439 8.65616 21.4754 10.4085 21.4754 12.2011C21.4754 14.6049 20.5205 16.9103 18.8208 18.61C17.121 20.3098 14.8157 21.2647 12.4119 21.2647ZM16.8832 6.71766L10.4708 9.93522C10.3259 10.0118 10.2075 10.1302 10.1309 10.2751L6.92842 16.6725C6.87194 16.7877 6.84577 16.9155 6.85237 17.0437C6.85898 17.1719 6.89815 17.2963 6.96618 17.4051C7.03421 17.514 7.12886 17.6037 7.24119 17.6658C7.35352 17.7279 7.47983 17.7604 7.60818 17.7601C7.72327 17.7606 7.83694 17.7347 7.94051 17.6846L14.353 14.467C14.4978 14.3904 14.6163 14.272 14.6929 14.1271L17.8953 7.71465C17.9652 7.57304 17.989 7.41309 17.9632 7.25728C17.9375 7.10148 17.8635 6.95766 17.7518 6.84606C17.6385 6.7368 17.4938 6.6657 17.3381 6.64268C17.1824 6.61966 17.0233 6.64587 16.8832 6.71766ZM13.4542 13.2434L9.2925 15.3205L11.3696 11.1588L15.5312 9.08174L13.4542 13.2434Z" fill="#97A2B0"/>
</svg>
